<?xml version="1.0" encoding="UTF-8"?>
<svg id="Camada_2" data-name="Camada 2" xmlns="http://www.w3.org/2000/svg" viewBox="0 0 219.97 212.68">
  <g id="Camada_4" data-name="Camada 4">
    <path d="M78.9,0c22.6,17.91,39.31,18.87,61.75,0h8.58c7.79,4.71,29.75,14.25,33.41,22.33,2.74,6.05-.01,20.37,1.04,28.12,3.08,22.6,28.76,21.97,34.28,36.04,2.33,5.95,2.7,32.71.82,38.81-4.28,13.94-32.6,13.44-35.26,38.49-.75,7.06,1,15.33-.09,22.2-1.97,12.4-24.48,20.81-34.21,26.68h-8.58c-20-17.06-40.4-19.08-60.03,0h-10.29c-9.15-6.54-32.29-14.48-34.21-26.68-2.03-12.89,3.68-25.33-5.5-37.38-8.24-10.81-28.95-11.57-30.61-28.56v-27.44c1.66-16.96,22.39-17.76,30.61-28.56,9.18-12.05,3.48-24.49,5.5-37.38,1.92-12.21,25.06-20.14,34.21-26.68h8.58ZM97.35,39.89c-69.62,9.47-69.59,123.43,0,132.89,103.81,14.12,103.01-146.9,0-132.89Z"/>
  </g>
</svg>