<?xml version="1.0" encoding="UTF-8"?>
<svg id="Camada_2" data-name="Camada 2" xmlns="http://www.w3.org/2000/svg" viewBox="0 0 763.95 100.56">
  <g id="Camada_4" data-name="Camada 4">
    <g>
      <path d="M37.31,0c10.69,8.47,18.59,8.92,29.2,0h4.05c3.69,2.23,14.07,6.74,15.8,10.56,1.29,2.86,0,9.63.49,13.29,1.46,10.69,13.6,10.39,16.21,17.04,1.1,2.82,1.28,15.47.39,18.35-2.02,6.59-15.42,6.35-16.67,18.2-.35,3.34.47,7.25-.04,10.5-.93,5.86-11.58,9.84-16.17,12.62h-4.05c-9.46-8.07-19.1-9.02-28.38,0h-4.87c-4.33-3.09-15.27-6.84-16.17-12.62-.96-6.09,1.74-11.98-2.6-17.67-3.9-5.11-13.69-5.47-14.48-13.5v-12.98c.79-8.02,10.59-8.4,14.48-13.5,4.34-5.7,1.64-11.58,2.6-17.67.91-5.77,11.85-9.52,16.17-12.62h4.05ZM46.03,18.86c-32.92,4.48-32.9,58.36,0,62.84,49.09,6.67,48.71-69.46,0-62.84Z"/>
      <polygon points="763.95 92.45 744.5 92.03 717.73 66.5 717.73 92.45 703.13 92.45 703.13 7.3 717.73 7.3 717.73 56.77 744.08 33.25 762.33 33.25 732.31 60.43 763.95 91.64 763.95 92.45"/>
      <path d="M322.77,33.25v8.92c10.76-13.69,31.04-13.37,39.33,2.43,9.11-16.26,34.66-16.92,42.16.83.83,1.97,2.85,8.35,2.85,10.12v35.68l-1.22,1.22h-13.38v-34.47c0-.62-1.76-4.96-2.26-5.85-5.13-9.01-17.95-8.91-23.23-.17-.32.53-2.09,4.93-2.09,5.21v35.28h-14.6v-35.28c0-.24-1.2-3.58-1.47-4.21-4.57-10.33-19.11-9.83-24.13-.31-.4.76-1.98,4.88-1.98,5.32v34.47h-13.79v-59.2h13.79Z"/>
      <path d="M494.7,33.25l12.17,38.12c2.08.32,1.26-.19,1.69-1.14,4.53-9.99,7.23-22.71,11.48-33.13.51-1.24,1.03-2.49,1.55-3.71l13.26.66,13.77,37.32,12.58-38.12h13.79l-21.46,59.26-12.52-.14-14.67-39.65-13.39,38.93-13.31.73-20.35-59.12h15.41Z"/>
      <path d="M279.79,92.45v-8.92c-18.49,20.94-45.53,6.63-46.27-19.83-.75-26.91,26.48-42.67,46.26-22.34v-8.11h13.39l1.22,1.22v56.77l-1.22,1.22h-13.38ZM260.92,45.61c-16.56,2.83-16.66,30.87-.64,34.32,25.54,5.49,26.11-38.66.64-34.32Z"/>
      <path d="M476.05,65.69h-44.6c.59,11.86,11.44,17.75,22.56,14.85,3.62-.94,7.35-5.93,7.85-5.93h13.38c-2.79,18.28-26.93,22.62-41.65,16.1-24.63-10.9-21.87-51.7,5.11-57.91,21.89-5.04,39.34,10.79,37.35,32.89ZM461.45,55.15c-4.69-15.4-25.52-15.3-30.01,0h30.01Z"/>
      <path d="M608.06,31.85c40.18-.72,41.6,61.51.45,61.91-40.32.39-41.75-61.18-.45-61.91ZM604.78,45.61c-19.18,3.31-16.08,38.45,6.91,34.48,18.93-3.27,16.65-38.55-6.91-34.48Z"/>
      <path d="M184.09,7.3v11.35h-20.68c-.26,0-4.63,1.2-5.08,1.41-4.17,1.99-3.51,9.31-3.44,13.19h20.27v12.98h-20.27v46.23h-14.6v-46.23h-15.41v-12.98h15.41v-12.57c0-4.78,7.89-13.38,12.57-13.38h31.22Z"/>
      <path d="M663.39,33.25l.41,8.93c1.01-3.25,9.41-8.93,12.16-8.93h19.06v14.6h-20.68c-3.72,0-10.95,5.23-10.95,9.33v35.28h-14.6v-59.2h14.6Z"/>
      <path d="M197.88,33.25l.41,8.93c1.43-3.72,9.38-8.93,12.98-8.93h18.25v14.6h-20.68c-3.72,0-10.95,5.23-10.95,9.33v35.28h-13.38l-1.22-1.22v-56.77l1.22-1.22h13.38Z"/>
    </g>
  </g>
</svg>